<svg id="SvgjsSvg1018" width="288" height="288" xmlns="http://www.w3.org/2000/svg" version="1.1" xmlns:xlink="http://www.w3.org/1999/xlink" xmlns:svgjs="http://svgjs.com/svgjs"><rect id="SvgjsRect1024" width="288" height="288" rx="45" ry="45" fill="#360f00" transform="matrix(0.85,0,0,0.85,21.60000000000001,21.60000000000001)"></rect><defs id="SvgjsDefs1019"></defs><g id="SvgjsG1020" transform="matrix(0.73,0,0,0.73,38.87565763318912,39.11918025970459)"><svg xmlns="http://www.w3.org/2000/svg" width="288" height="288" version="1.0" viewBox="0 0 2162 2048"><path d="M20525 19764 c-599 -321 -1139 -613 -1200 -649 -1173 -703 -4001-3288 -6735 -6155 -630 -661 -703 -740 -4074 -4428 -1605 -1756 -2921 -3190
-2925 -3187 -3 3 -330 1026 -726 2273 l-721 2267 -794 3 c-916 4 -1021 -2
-1386 -68 -348 -63 -773 -202 -1014 -333 -185 -100 -242 -148 -603 -507 l-348
-346 1254 -2310 c690 -1271 1294 -2383 1342 -2470 893 -1619 1795 -3051 2374
-3771 l66 -82 410 -1 410 0 140 160 c702 808 1833 2407 3052 4318 339 531 553
858 816 1247 1886 2783 4809 6567 7067 9150 130 149 1232 1402 2450 2785 1217
1383 2219 2522 2227 2531 10 12 13 37 11 86 l-3 70 -1090 -583z" transform="matrix(.1 0 0 -.1 0 2048)" fill="#ffffff" class="color000 svgShape"></path></svg></g></svg>