<?xml version="1.0" standalone="no"?>
<!DOCTYPE svg PUBLIC "-//W3C//DTD SVG 20010904//EN"
 "http://www.w3.org/TR/2001/REC-SVG-20010904/DTD/svg10.dtd">
<svg version="1.0" xmlns="http://www.w3.org/2000/svg"
 width="1250.000000pt" height="1250.000000pt" viewBox="0 0 1250.000000 1250.000000"
 preserveAspectRatio="xMidYMid meet">

<g transform="translate(0.000000,1250.000000) scale(0.100000,-0.100000)"
fill="#000000" stroke="none">
<path d="M5860 12489 c-1936 -120 -3698 -1129 -4793 -2744 -954 -1409 -1286
-3147 -923 -4835 310 -1440 1155 -2758 2341 -3650 1291 -971 2866 -1400 4480
-1219 2400 268 4450 1931 5215 4229 426 1280 426 2680 0 3960 -765 2298 -2815
3961 -5215 4229 -354 40 -765 51 -1105 30z m3515 -2784 c146 -31 301 -129 390
-246 93 -123 135 -249 135 -409 0 -107 -17 -185 -59 -275 -15 -34 -860 -1332
-1876 -2885 -1017 -1554 -1863 -2850 -1881 -2881 -27 -45 -50 -67 -116 -111
-109 -73 -151 -93 -245 -119 -66 -18 -96 -21 -198 -17 -115 5 -125 7 -235 51
-63 26 -128 60 -145 76 -16 15 -511 472 -1100 1015 -588 543 -1093 1012 -1121
1042 -203 220 -236 543 -83 801 46 76 151 179 230 226 223 131 507 123 714
-20 33 -23 415 -370 849 -772 l789 -731 82 123 c45 67 783 1195 1641 2507
1734 2653 1613 2479 1787 2565 146 72 291 92 442 60z"/>
</g>
</svg>
